# xmcd
#
# Track frame offsets:
#	150
#	16419
#	25668
#	39254
#	50300
#	70685
#	88052
#	100839
#	118668
#	129778
#	144496
#	162541
#	179425
#	192025
#	207718
#	221741
#	235598
#	256726
#	266909
#	282562
#
# Disc length: 3971 seconds
#
# Revision: 0
# Processed by: cddbd v1.5.2PL0 Copyright (c) Steve Scherf et al.
# Submitted via: EasyCDDAExtractor 11.5.3.1
#
DISCID=1f0f8114
DTITLE=Verne Gosdin - Chiseled in Stone/Alone
DYEAR=2011
DGENRE=Country
TTITLE0=Do You Believe Me Now
TTITLE1=Tight as Twin Fiddles
TTITLE2=Is it Raining at Your House
TTITLE3=Set 'Em Up Joe
TTITLE4=There Ain't Nothing Wrong (There Ain't Nothing Right)
TTITLE5=Chiseled in Stone
TTITLE6=Who You Gonna Blame it on This Time
TTITLE7=It's Not Over Yet
TTITLE8=Nobody Calls From Vegas Just to Say Hello
TTITLE9=I Guess I Had Your Leavin' Coming
TTITLE10=That Just About Does it
TTITLE11=Take Me Home to Alabama
TTITLE12=I'm Still Crazy
TTITLE13=Paradise
TTITLE14=Do Me a Favor
TTITLE15=Tanqueray
TTITLE16=Alone
TTITLE17=Right in the Wrong Direction
TTITLE18=I'm Only Going Crazy
TTITLE19=You're Not by Yourself
EXTD=
EXTT0=
EXTT1=
EXTT2=
EXTT3=
EXTT4=
EXTT5=
EXTT6=
EXTT7=
EXTT8=
EXTT9=
EXTT10=
EXTT11=
EXTT12=
EXTT13=
EXTT14=
EXTT15=
EXTT16=
EXTT17=
EXTT18=
EXTT19=
PLAYORDER=
